<?xml version="1.0" standalone="no"?>
<!DOCTYPE svg PUBLIC "-//W3C//DTD SVG 20010904//EN"
 "http://www.w3.org/TR/2001/REC-SVG-20010904/DTD/svg10.dtd">
<svg version="1.0" xmlns="http://www.w3.org/2000/svg"
 width="152.000000pt" height="153.000000pt" viewBox="0 0 152.000000 153.000000"
 preserveAspectRatio="xMidYMid meet">
<metadata>
Created by potrace 1.15, written by Peter Selinger 2001-2017
</metadata>
<g transform="translate(0.000000,153.000000) scale(0.100000,-0.100000)"
fill="#000000" stroke="none">
<path d="M368 1143 c-82 -4 -98 -15 -77 -54 9 -18 17 -19 78 -13 51 5 69 3 78
-8 7 -7 42 -136 78 -285 l67 -272 -21 -27 c-30 -38 -28 -98 4 -129 40 -41 92
-31 143 26 24 26 37 31 118 41 l90 11 27 -27 c38 -38 80 -35 123 8 28 28 34
41 34 78 0 56 -22 78 -75 78 -32 0 -44 -7 -80 -45 -40 -44 -43 -45 -130 -57
l-88 -11 -21 26 c-12 14 -33 30 -49 36 -26 10 -53 54 -42 70 2 5 39 11 82 15
128 11 336 47 359 61 23 15 37 52 24 60 -5 3 -40 -2 -79 -10 -77 -16 -298 -45
-343 -45 -15 0 -28 4 -28 9 0 4 37 12 83 15 90 8 363 52 378 61 5 4 9 17 9 31
0 20 -4 24 -17 20 -77 -23 -459 -74 -470 -62 -12 11 2 14 147 31 80 9 192 26
250 38 93 20 105 24 108 45 4 28 -3 28 -133 3 -114 -22 -385 -54 -393 -46 -12
11 11 16 143 30 171 18 353 52 383 71 24 16 30 44 8 44 -8 0 -58 -9 -111 -20
-172 -35 -434 -62 -435 -45 0 6 57 15 127 22 71 6 182 21 248 33 66 13 133 25
148 28 32 5 66 47 50 63 -6 6 -43 2 -104 -10 -147 -30 -315 -51 -430 -54
l-104 -2 -20 75 c-22 84 -31 101 -48 98 -7 -1 -46 -4 -89 -5z"/>
</g>
</svg>
